<svg width="14" height="15" viewBox="0 0 14 15" fill="none" xmlns="http://www.w3.org/2000/svg">
<path fill-rule="evenodd" clip-rule="evenodd" d="M5.33333 11.5976C2.38781 11.5976 0 9.20982 0 6.2643C0 3.31878 2.38781 0.930969 5.33333 0.930969C8.27885 0.930969 10.6667 3.31878 10.6667 6.2643C10.6667 7.49678 10.2486 8.63161 9.54657 9.53473L13.1381 13.1262L12.1953 14.069L8.60376 10.4775C7.70064 11.1796 6.56581 11.5976 5.33333 11.5976ZM9.33333 6.2643C9.33333 8.47344 7.54247 10.2643 5.33333 10.2643C3.12419 10.2643 1.33333 8.47344 1.33333 6.2643C1.33333 4.05516 3.12419 2.2643 5.33333 2.2643C7.54247 2.2643 9.33333 4.05516 9.33333 6.2643Z" fill="#828282"/>
</svg>
